<?xml version="1.0" encoding="utf-8"?>
<!-- Generator: Adobe Illustrator 21.0.0, SVG Export Plug-In . SVG Version: 6.00 Build 0)  -->
<svg version="1.1" id="Layer_1" xmlns="http://www.w3.org/2000/svg" xmlns:xlink="http://www.w3.org/1999/xlink" x="0px" y="0px"
	 viewBox="0 0 70 96.6" style="enable-background:new 0 0 70 96.6;" xml:space="preserve">
<g>
	<g>
		<path d="M39.7,62.3c-8-3.5-13.4-12.7-12.9-21.8c0.1-1.4-0.2-2.3-0.8-2.7c-1.4-1-4.8,0-6.3,0.6l-3,1.3l0.5-3.2
			c2.7-16.6,18.8-17.2,19-17.2l0.1,3.5l0-1.7l0,1.7c-0.5,0-11.5,0.5-15,11.4c2-0.5,4.6-0.6,6.5,0.7c1.1,0.8,2.5,2.4,2.3,5.7
			c-0.4,7.7,4.1,15.5,10.8,18.4L39.7,62.3z"/>
	</g>
	<g>
		<circle cx="38.8" cy="33.6" r="3.3"/>
	</g>
	<g>
		<path d="M65.8,43.3c-6.2-5.1-17.1-4.7-17.2-4.7l-2.2,0.1l0.5-2.2c0.8-3.7,3.5-7.2,3.6-7.4l2.8,2.1l-1.4-1.1l1.4,1.1
			c0,0-1.4,1.8-2.3,3.9c4,0.2,11.9,1.1,17.2,5.5L65.8,43.3z"/>
	</g>
	<g>
		<rect x="47.6" y="36.8" transform="matrix(0.9692 -0.2464 0.2464 0.9692 -8.4191 13.4097)" width="3.5" height="7.1"/>
	</g>
	<g>
		<path d="M47.3,96.6c-1,0-1.7-0.8-1.7-1.7c0,0,0.2,0,0.2,0h0.1c0-11-8.6-15.9-19.7-21.9C20.8,70,14.6,66.6,9,62.1
			C-8.8,47.7,5.2,29.3,5.4,29.2L5.6,29c7.3-7,15.2-10.6,23.4-10.6c12.3,0,21.3,8,23.5,10.1c10.7,0.5,15.8,12.3,16,12.8l1.4,3.3
			l-3.5-1c0,0-2.2-0.6-5.5-0.6c-2.5,0-5,0.3-7.5,0.9c-1.7,0.4-1.9,0.9-1.9,0.9c-0.2,0.3,0.3,1.6,0.6,2.4c0.9,2.4,2.3,6,0.1,10.1
			c-2.5,4.8-6.4,5.8-8.9,5.8c3.8,7.9,5.3,18.5,5.3,31.6v0C48.8,95.8,48.3,96.6,47.3,96.6z M8.1,31.4c-1.1,1.4-11.5,16.2,3.1,28
			c5.4,4.3,11.1,7.5,16.7,10.5c7,3.8,13.4,7.3,17.4,12.4c-1-8.4-3.1-15.3-6.3-20.6l-3.3-5.4l5.6,2.9c0,0,1.1,0.6,2.6,0.6
			c2.2,0,4-1.3,5.3-3.9c1.4-2.8,0.6-5.1-0.3-7.3c-0.7-1.7-1.3-3.5-0.5-5.2c0.9-1.6,2.8-2.3,4.1-2.6c2.7-0.7,5.5-1.1,8.3-1.1
			c1,0,1.9,0.5,2.7,0.5c-2.1-3.2-6.1-7.3-11.9-7.3H51l-0.5-1c-0.1-0.1-9.1-9.8-21.5-9.8C21.8,22.1,14.7,25.1,8.1,31.4z"/>
	</g>
	<g>
		<path d="M49.6,28.7L47.4,26c2-1.6,3-2.6,3.5-3.2c-0.3-0.1-0.5-0.1-0.8-0.2c-2-0.4-5.4-1.1-5.9-4.6c-0.3-2-1-2.5-2.4-3.3
			c-1.5-0.9-3.6-2.2-4.6-5.6c-0.2-0.5-0.3-0.6-0.3-0.6c-0.4-0.1-1.9,0.7-2.6,1.1c-1.7,0.9-3.5,1.9-5.2,1.1c-1-0.5-1.6-1.4-1.9-2.8
			c-0.4-2-3-3.8-5.8-4.2c-1.6-0.2-5.7-0.2-8.1,4.6c-1,1.9-1.1,3.7-0.5,5.5c1.5,4.2,7,6.7,7.1,6.7l-1.4,3.2c-0.3-0.1-6.9-3.1-8.9-8.7
			c-1-2.7-0.7-5.4,0.7-8.2c2.4-4.7,6.7-7.1,11.6-6.5c4.3,0.6,8,3.5,8.7,6.9c0,0.1,0.1,0.2,0.1,0.3c0.5-0.1,1.4-0.6,2-0.9
			c1.7-0.9,3.7-2,5.6-1.2c1.1,0.4,1.8,1.4,2.3,2.8c0.7,2.2,1.8,2.9,3.1,3.7c1.6,1,3.6,2.2,4.1,5.9c0.1,0.9,1.1,1.2,3.1,1.7
			c1.6,0.3,3.4,0.7,3.9,2.5C55.1,23.5,53.8,25.2,49.6,28.7z"/>
	</g>
</g>
</svg>
