<?xml version="1.0" encoding="utf-8"?>
<!-- Generator: Adobe Illustrator 21.0.0, SVG Export Plug-In . SVG Version: 6.00 Build 0)  -->
<svg version="1.1" id="Layer_1" xmlns="http://www.w3.org/2000/svg" xmlns:xlink="http://www.w3.org/1999/xlink" x="0px" y="0px"
	 viewBox="0 0 40 52" style="enable-background:new 0 0 40 52;" xml:space="preserve">
<g>
	<g>
		<path d="M20,0C8.4,0,0,21,0,32c0,11,9,20,20,20s20-9,20-20C40,21,31.6,0,20,0z M20,48c-8.8,0-16-7.2-16-16C4,22,12.1,4,20,4
			s16,18,16,28C36,40.8,28.8,48,20,48z"/>
		<path d="M31.9,24.5c-1.4-5.1-4.3-11.6-8.2-14.2c-0.5-0.3-1.1-0.2-1.4,0.3c-0.3,0.5-0.2,1.1,0.3,1.4c2.9,2,5.7,7.1,7.4,13.1
			c0.1,0.4,0.5,0.7,1,0.7c0.1,0,0.2,0,0.3,0C31.7,25.6,32,25,31.9,24.5z"/>
	</g>
</g>
</svg>
